<svg id="Layer_1" data-name="Layer 1" xmlns="http://www.w3.org/2000/svg" viewBox="0 0 122.88 101.9"><defs><style>.cls-1{fill-rule:evenodd;}</style></defs><title>web-development</title><path class="cls-1" d="M3.34,0h116.2a3.35,3.35,0,0,1,3.34,3.34v77a3.35,3.35,0,0,1-3.34,3.34H3.34A3.35,3.35,0,0,1,0,80.32v-77A3.35,3.35,0,0,1,3.34,0ZM13.49,63.91a2.59,2.59,0,1,1,0-5.17H52.94a2.59,2.59,0,1,1,0,5.17Zm.15-13.28a2.59,2.59,0,0,1,0-5.17H42.4a2.59,2.59,0,0,1,0,5.17ZM13.49,37.4a2.59,2.59,0,1,1,0-5.17H33.85a2.59,2.59,0,0,1,0,5.17Zm0-13.26a2.59,2.59,0,1,1,0-5.17H25.3a2.59,2.59,0,0,1,0,5.17Zm97,26.19v6.44l-13.23,7.5v-7.5l8.52-3.24-8.52-3.2v-7.5l13.23,7.5Zm-22.92,16H82l7-27.11h5.63l-7,27.11Zm-9.41-16-8.53,3.2,8.53,3.24v7.5L65,56.77V50.33l13.24-7.5v7.5Zm5.67-38.68v3.67A1.83,1.83,0,0,1,82,17.15H79a14.43,14.43,0,0,1-1.6,3.5l2,2a1.83,1.83,0,0,1,0,2.58l-2.71,2.71a1.83,1.83,0,0,1-2.58,0l-2.18-2.18a14.43,14.43,0,0,1-3.6,1.35v2.82a1.84,1.84,0,0,1-1.83,1.83H62.63a1.84,1.84,0,0,1-1.83-1.83V26.85a14.2,14.2,0,0,1-3.5-1.59l-2,2a1.82,1.82,0,0,1-2.59,0L50,24.55A1.84,1.84,0,0,1,50,22l2.18-2.17a14.5,14.5,0,0,1-1.35-3.61H48a1.83,1.83,0,0,1-1.83-1.83v-2.7H3.09V70.84a3,3,0,0,0,3,3H116.85a3,3,0,0,0,3-3V11.65Zm-11.42,0H57.62a7.71,7.71,0,0,0-.11,1.28,7.52,7.52,0,0,0,15,0,7.71,7.71,0,0,0-.1-1.28Zm41.79-6.73a2,2,0,1,1-2,2,2,2,0,0,1,2-2Zm-13.44,0a2,2,0,1,1-2,2,2,2,0,0,1,2-2Zm6.72,0a2,2,0,1,1-2,2,2,2,0,0,1,2-2ZM46.29,88.27h30.3c.08,5.24,2.24,9.94,8.09,13.63H38.2c4.71-3.41,8.11-7.54,8.09-13.63Z"/></svg>